<svg width="32" height="30" viewBox="0 0 32 30" fill="none" xmlns="http://www.w3.org/2000/svg">
<path d="M16 11.3053C16.312 9.812 18.0627 3 23.176 3C26.136 3 29.3333 5.068 29.3333 9.67066C29.3333 14.88 24.4973 20.964 16 26.5093C7.50267 20.964 2.66667 14.88 2.66667 9.67066C2.66667 5.02533 5.82533 2.99733 8.76933 2.99733C14 2.99733 15.6293 9.832 16 11.3053ZM0 9.67066C0 15.0947 4.08 22.312 16 29.6667C27.92 22.312 32 15.0947 32 9.67066C32 -0.945334 19.136 -2.36667 16 4.688C12.8827 -2.328 0 -1.00533 0 9.67066Z" fill="#A29CC0"/>
</svg>
