<svg width="32" height="32" viewBox="0 0 32 32" fill="none" xmlns="http://www.w3.org/2000/svg">
<path d="M6.66667 12C8.872 12 10.6667 13.7947 10.6667 16C10.6667 18.2053 8.872 20 6.66667 20C4.46133 20 2.66667 18.2053 2.66667 16C2.66667 13.7947 4.46133 12 6.66667 12ZM6.66667 9.33333C2.984 9.33333 0 12.3187 0 16C0 19.6813 2.984 22.6667 6.66667 22.6667C10.3493 22.6667 13.3333 19.6813 13.3333 16C13.3333 12.3187 10.3493 9.33333 6.66667 9.33333ZM26.6667 21.3333C25.1133 21.3333 23.728 22.008 22.7533 23.068L15.436 19.1653C15.1293 20.0133 14.704 20.804 14.1773 21.5173L21.4947 25.42C21.3987 25.8213 21.3333 26.2347 21.3333 26.6667C21.3333 29.612 23.7213 32 26.6667 32C29.612 32 32 29.612 32 26.6667C32 23.7213 29.612 21.3333 26.6667 21.3333ZM26.6667 29.3333C25.196 29.3333 24 28.1373 24 26.6667C24 25.196 25.196 24 26.6667 24C28.1373 24 29.3333 25.196 29.3333 26.6667C29.3333 28.1373 28.1373 29.3333 26.6667 29.3333ZM26.6667 0C23.7213 0 21.3333 2.388 21.3333 5.33333C21.3333 5.76533 21.3987 6.17867 21.4947 6.58L14.1773 10.4827C14.704 11.1973 15.128 11.9867 15.436 12.8347L22.7533 8.932C23.728 9.992 25.1133 10.6667 26.6667 10.6667C29.612 10.6667 32 8.27867 32 5.33333C32 2.388 29.612 0 26.6667 0ZM26.6667 8C25.196 8 24 6.804 24 5.33333C24 3.86267 25.196 2.66667 26.6667 2.66667C28.1373 2.66667 29.3333 3.86267 29.3333 5.33333C29.3333 6.804 28.1373 8 26.6667 8Z" fill="#A29CC0"/>
</svg>
