<?xml version="1.0" encoding="UTF-8"?><svg id="a" xmlns="http://www.w3.org/2000/svg" viewBox="0 0 512 512"><defs><style>.b{fill:#A29CC0;}</style></defs><path class="b" d="M437.02,74.98C390.69,28.65,326.69,0,256,0S121.31,28.65,74.98,74.98,0,185.31,0,256s28.65,134.69,74.98,181.02c46.33,46.33,110.33,74.98,181.02,74.98s134.69-28.65,181.02-74.98c46.33-46.33,74.98-110.33,74.98-181.02s-28.65-134.69-74.98-181.02Zm-36.01,140.17c-28.5,2.73-53.46-6.41-82.5-23.63v104.48c0,132.72-147.64,174.2-206.99,79.07-38.14-61.22-14.79-168.64,107.57-172.94v58.91c-9.32,1.47-19.29,3.78-28.39,6.83-27.21,9.03-42.64,25.94-38.36,55.76,8.25,57.12,115.18,74.03,106.28-37.59V76.97h59.03v-.11c5.89,49.67,34.18,79.28,83.35,82.43v55.86Z"/></svg>